<svg width="128" height="128" xmlns="http://www.w3.org/2000/svg" xmlns:xlink="http://www.w3.org/1999/xlink"><defs><circle id="a" cx="64" cy="64" r="64"/><path id="c" d="M.638.732h12.158V7.76H.638z"/><path id="e" d="M.52.548h9.928v7.028H.52z"/><path id="g" d="M0 .226h9.074v39.7H0z"/></defs><g fill="none" fill-rule="evenodd"><mask id="b" fill="#fff"><use xlink:href="#a"/></mask><use fill="#99BDCD" fill-rule="nonzero" xlink:href="#a"/><path fill="#005B82" fill-rule="nonzero" mask="url(#b)" d="M50.312 96.185h32.446v37.707H50.312z"/><path fill="#E7E5E2" fill-rule="nonzero" mask="url(#b)" d="M52.532 82.867h26.527v13.291H52.532z"/><g mask="url(#b)"><g transform="translate(49.321 35.23)"><path d="M30.265 59H3.735A3.725 3.725 0 0 1 0 55.283V3.716A3.725 3.725 0 0 1 3.735 0h26.53A3.725 3.725 0 0 1 34 3.716v51.567A3.725 3.725 0 0 1 30.265 59z" fill="#595B5C"/><rect fill="#FFF" width="29.31" height="43.66" rx="1" transform="translate(2.345 5.9)"/><path d="M19.931 54.28c0 1.303-1.05 2.36-2.345 2.36a2.353 2.353 0 0 1-2.345-2.36c0-1.303 1.05-2.36 2.345-2.36a2.352 2.352 0 0 1 2.345 2.36" fill="#FFF"/><path fill="#000" fill-rule="nonzero" d="M8.207 16.52h3.517v20.06H8.207z"/><rect fill="#000" fill-rule="nonzero" x="14.069" y="16.52" width="7.034" height="20.06" rx="1"/><rect fill="#000" fill-rule="nonzero" x="14.069" y="16.52" width="12.897" height="20.06" rx="5.5"/><g transform="translate(17.586 20.06)" fill="#FFF" fill-rule="nonzero"><rect width="3.517" height="12.98" rx="1"/><rect width="5.862" height="12.98" rx="2.5"/></g></g></g><path d="M80.677 81.028h3.05c1.744 0 3.172-1.585 3.172-3.523 0-1.938-1.428-3.523-3.173-3.523h-3.049c-1.745 0-3.172 1.585-3.172 3.523 0 1.938 1.427 3.523 3.172 3.523" fill="#E7E5E2" mask="url(#b)"/><g mask="url(#b)"><g transform="translate(73.982 65.761)"><mask id="d" fill="#fff"><use xlink:href="#c"/></mask><path d="M4.21 7.76h5.013c1.965 0 3.573-1.581 3.573-3.515 0-1.932-1.608-3.513-3.573-3.513H4.21C2.246.732.638 2.312.638 4.245c0 1.934 1.608 3.515 3.573 3.515" fill="#E7E5E2" mask="url(#d)"/></g></g><path d="M83.52 64.587c1.858 0 3.38-1.585 3.38-3.523 0-1.937-1.522-3.523-3.38-3.523h-4.985c-1.859 0-3.379 1.586-3.379 3.523 0 1.938 1.52 3.523 3.38 3.523h4.984z" fill="#E7E5E2" mask="url(#b)"/><g mask="url(#b)"><g transform="translate(76.33 49.321)"><mask id="f" fill="#fff"><use xlink:href="#e"/></mask><path d="M4.07 7.576h2.828c1.953 0 3.55-1.581 3.55-3.514 0-1.933-1.597-3.514-3.55-3.514H4.07C2.118.548.52 2.129.52 4.062c0 1.933 1.597 3.514 3.55 3.514" fill="#E7E5E2" mask="url(#f)"/></g></g><g mask="url(#b)"><g transform="translate(42.275 49.321)"><mask id="h" fill="#fff"><use xlink:href="#g"/></mask><path d="M7.529 39.927s-11.713-1.562-5.92-23.398c-.63-.571 0-16.164 0-16.164S7.53-.924 8.412 4.36c.881 5.283.63 12.17.63 12.17s-.127 2.381-1.512 3.546c.126.263 0 19.85 0 19.85" fill="#E7E5E2" mask="url(#h)"/></g></g></g></svg>