<?xml version="1.0" encoding="UTF-8"?>
<svg width="128px" height="128px" viewBox="0 0 128 128" version="1.1" xmlns="http://www.w3.org/2000/svg" xmlns:xlink="http://www.w3.org/1999/xlink">
    <!-- Generator: Sketch 52.1 (67048) - http://www.bohemiancoding.com/sketch -->
    <title>NAV</title>
    <desc>Created with Sketch.</desc>
    <defs>
        <circle id="path-1" cx="64" cy="64" r="64"></circle>
        <path d="M58.4891075,28.5172938 C60.5521283,37.203019 58.5951849,52.7371527 53.2474255,64.35 C43.6382847,59.9429572 15.2339523,61.7098013 7.0440527,64.0165145 C7.0440527,64.0165145 -0.733730458,53.2619206 0.0563625801,33.2678897 C0.0563625801,33.2678897 2.85338948,-0.326058912 29.4812318,0.00239287912 C56.1066356,0.332103107 58.4891075,28.5172938 58.4891075,28.5172938" id="path-3"></path>
        <path d="M47.9921035,3.87073935 C55.4313188,7.46038087 67,17.1845798 67,26.2016227 L67,56 L0,56 L0,26.2016227 C0,17.5015164 10.585099,8.14309165 17.9391701,4.27169151 C17.5666637,4.49500418 17.3703704,4.62961358 17.3703704,4.62961358 C18.6375369,6.68823895 22.0433479,15.826087 32.7263942,15.826087 C43.4117529,15.826087 48.3888889,6.01572919 48.3888889,4.09803665 C48.2565135,4.0209945 48.1242494,3.94523397 47.9921035,3.87073935 Z" id="path-5"></path>
    </defs>
    <g id="FO-1810-Nivå-3-og-4" stroke="none" stroke-width="1" fill="none" fill-rule="evenodd">
        <g id="NAV">
            <g id="spotlight/-person-copy-3">
                <g id="spotlight/-person-copy-2">
                    <g id="spotlight/-person">
                        <g id="-80/-Blå">
                            <mask id="mask-2" fill="white">
                                <use xlink:href="#path-1"></use>
                            </mask>
                            <g id="Mask"></g>
                            <g id="⚙️/farger/-60/-Dyp-blå" mask="url(#mask-2)">
                                <g transform="translate(-10.240000, 0.000000)" id="⚙️/farge/-Dyp-blå/-60">
                                    <g>
                                        <polygon id="Fill-22" fill="#99BDCD" points="0 128 161 128 161 0 0 0"></polygon>
                                    </g>
                                </g>
                            </g>
                            <g id="mennesker/NAV-ansatt/kvinne/-Frida" mask="url(#mask-2)">
                                <g transform="translate(19.200000, 10.240000)" id="mennesker/kvinne/-forfra/-B">
                                    <g>
                                        <g id="Group-2" transform="translate(2.647059, 7.937500)">
                                            <g id="mennesker/kvinne/⚙️/-hår/-kort-buet">
                                                <g id="hårfarge/-brunn" transform="translate(12.352941, 0.000000)">
                                                    <mask id="mask-4" fill="white">
                                                        <use xlink:href="#path-3"></use>
                                                    </mask>
                                                    <use id="Mask" fill="#38383A" xlink:href="#path-3"></use>
                                                    <g id="mennesker/⚙️/hårfarge/-brunn" mask="url(#mask-4)" fill="#8B5F26">
                                                        <g transform="translate(-13.588235, -1.237500)" id="hårfarge/-brunn">
                                                            <rect x="0" y="0" width="85" height="98"></rect>
                                                        </g>
                                                    </g>
                                                </g>
                                            </g>
                                            <g id="Group" transform="translate(8.685662, 19.843750)">
                                                <path d="M17.3713235,46.7230696 C18.6385596,48.7485618 22.1978013,84.3359375 32.8814338,84.3359375 C43.5673788,84.3359375 48.3915441,48.086876 48.3915441,46.2000483 C32.0313415,36.8322141 17.3713235,46.7230696 17.3713235,46.7230696 Z" id="Combined-Shape" fill="#E7E5E2"></path>
                                                <g id="mennesker/⚙️/kropp/arbeid/Forfra/-nav-ansatt" transform="translate(0.000000, 42.167969)">
                                                    <g id="mennesker/⚙️/kropp/Person/Forfra/-rund-hals" transform="translate(0.000000, 1.212766)">
                                                        <mask id="mask-6" fill="white">
                                                            <use xlink:href="#path-5"></use>
                                                        </mask>
                                                        <use id="Mask" fill="#D8A25D" fill-rule="evenodd" xlink:href="#path-5"></use>
                                                        <g id="-2-Styles/-Farge/-interaksjon/-Dyp-blå" mask="url(#mask-6)" fill="#005B82" fill-rule="evenodd">
                                                            <g transform="translate(-40.944444, -30.434783)" id="Fill-25">
                                                                <polygon points="0 122 156 122 156 0 0 0"></polygon>
                                                            </g>
                                                        </g>
                                                    </g>
                                                    <g id="nav-id/-kort/-rød" transform="translate(39.703704, 24.255319)" fill-rule="evenodd" stroke-width="1">
                                                        <g id="NAV-Copy-2" transform="translate(0.000000, -1.250000)">
                                                            <g id="Group-11">
                                                                <g id="Navansatt-dame">
                                                                    <g transform="translate(0.000000, 0.937500)">
                                                                        <path d="M20.4692795,15.3125 L1.52958747,15.3125 C0.684348767,15.3125 0,14.6019422 0,13.7243326 L0,3.15184377 C0,2.27423426 0.684348767,1.5625 1.52958747,1.5625 L20.4692795,1.5625 C21.3145182,1.5625 22,2.27423426 22,3.15184377 L22,13.7243326 C22,14.6019422 21.3145182,15.3125 20.4692795,15.3125" id="Fill-97" fill="#D2242A"></path>
                                                                        <path d="M15.7223412,9.07286855 C15.7223412,11.6693359 13.6544386,13.7767578 11.1026512,13.7767578 C8.54652395,13.7767578 6.47753643,11.6693359 6.47753643,9.07286855 C6.47753643,6.47640115 8.54652395,4.36897928 11.1026512,4.36897928 C13.6544386,4.36897928 15.7223412,6.47640115 15.7223412,9.07286855" id="Fill-98" fill="#FFFFFF"></path>
                                                                        <polygon id="Fill-99" fill="#FFFFFF" points="5.11397927 11.1462891 4.2123911 11.1462891 5.17582105 8.74301121 6.07957911 8.74301121"></polygon>
                                                                        <polygon id="Fill-100" fill="#FFFFFF" points="16.4767025 11.1462891 15.9179565 11.1462891 16.8813865 8.74301121 17.4401324 8.74301121"></polygon>
                                                                        <polygon id="Fill-101" fill="#FFFFFF" points="18.0188414 11.1462891 17.7823237 11.1462891 18.7435837 8.74301121 18.9801014 8.74301121"></polygon>
                                                                        <path d="M7.59112258,11.1346977 L8.30067572,11.1346977 C8.33756381,11.1346977 8.36577234,11.1059952 8.36577234,11.0695652 L8.36577234,8.82083899 C8.36577234,8.78440897 8.33756381,8.75570652 8.30067572,8.75570652 L7.58352798,8.75570652 C7.53579046,8.75570652 7.50107226,8.79324049 7.50107226,8.84070992 L7.21898692,9.5483356 C7.20162782,9.58476562 7.22983635,9.62892323 7.26780938,9.62892323 L7.47069384,9.62892323 C7.50107226,9.62892323 7.52711091,9.65210598 7.52711091,9.68632812 L7.52711091,11.0695652 C7.52711091,11.1059952 7.55531944,11.1346977 7.59112258,11.1346977" id="Fill-102" fill="#C52D35"></path>
                                                                        <path d="M9.132719,11.1346977 L9.84444203,11.1346977 C9.88133011,11.1346977 9.91279348,11.1059952 9.91279348,11.0695652 L9.91279348,8.82083899 C9.91279348,8.78440897 9.88133011,8.75570652 9.84444203,8.75570652 L8.73779952,8.75570652 C8.69114694,8.75570652 8.65425886,8.79324049 8.65425886,8.84070992 L8.37108857,9.5483356 L8.27344364,9.62892323 L8.83978422,9.62892323 C8.96563768,9.62892323 9.06870733,9.73048573 9.06870733,9.86075068 L9.06870733,11.0695652 C9.06870733,11.1059952 9.09691586,11.1346977 9.132719,11.1346977" id="Fill-103" fill="#C52D35"></path>
                                                                        <path d="M12.3154012,8.75592731 L11.6036781,8.75592731 C11.567875,8.75592731 11.5385815,8.78462976 11.5385815,8.82105978 L11.5385815,11.069786 C11.5385815,11.106216 11.567875,11.1349185 11.6036781,11.1349185 L12.3229958,11.1349185 C12.3707333,11.1349185 12.4054515,11.0973845 12.4054515,11.0499151 L12.6875368,10.3422894 C12.7048959,10.3036515 12.6777723,10.2617018 12.6343746,10.2617018 L12.4379998,10.2617018 C12.4054515,10.2617018 12.3826677,10.2352072 12.3826677,10.2054008 L12.3826677,8.82105978 C12.3826677,8.78462976 12.3501194,8.75592731 12.3154012,8.75592731" id="Fill-104" fill="#C52D35"></path>
                                                                        <path d="M9.38800624,11.1346977 L9.85561695,11.1346977 C9.90118458,11.1346977 9.93807267,11.0960598 9.93807267,11.0507982 L10.220158,10.3409647 C10.2364322,10.3034307 10.2093086,10.260377 10.1680807,10.260377 L9.97062097,10.260377 L9.38800624,11.1346977 Z" id="Fill-105" fill="#C52D35"></path>
                                                                        <path d="M14.2199112,8.75592731 L15.0661673,8.75592731 C15.1073951,8.75592731 15.1366886,8.79566916 15.1193295,8.83430707 L14.2231661,11.0984885 C14.2166564,11.1216712 14.1960425,11.1349185 14.1710888,11.1349185 L13.4051186,11.1349185 L14.1645791,8.79456522 C14.1732587,8.77138247 14.1960425,8.75592731 14.2199112,8.75592731" id="Fill-106" fill="#C52D35"></path>
                                                                        <path d="M13.1588364,8.75592731 L11.9621435,8.75592731 C11.8775179,8.75592731 12.3060707,8.83982677 12.3364491,8.91820652 L13.1827051,11.0598505 C13.2000642,11.10732 13.243462,11.1349185 13.2911995,11.1349185 L14.0170268,11.1349185 L13.2705855,8.83651495 C13.2543114,8.7857337 13.2087438,8.75592731 13.1588364,8.75592731" id="Fill-107" fill="#C52D35"></path>
                                                                        <path d="M11.5963005,9.51875 C11.5963005,9.99786005 11.5366286,10.0265625 11.5366286,10.0265625 C11.5366286,10.0265625 11.4693621,9.56732337 11.1210952,9.56732337 C10.779338,9.56732337 10.701222,9.77044837 10.701222,9.92168818 C10.701222,10.0972147 10.8758979,10.2617018 10.9735429,10.2617018 L11.5963005,10.2617018 L11.2285046,11.0907609 C11.2154853,11.1183594 11.1894467,11.1349185 11.1601532,11.1349185 L10.8769829,11.1349185 C10.5807933,11.1349185 9.80722846,10.7397079 9.80722846,9.97467731 C9.80722846,9.2085428 10.3822486,8.75592731 10.8617937,8.75592731 C11.2577981,8.75592731 11.5963005,9.0330163 11.5963005,9.51875 Z" id="Fill-108" fill="#C52D35"></path>
                                                                        <path d="M12.1380129,3.74503227 L10.1753498,3.74503227 C10.0299674,3.74503227 9.91279348,3.62580673 9.91279348,3.47787874 L9.91279348,3.14117697 C9.91279348,2.99435292 10.0299674,2.87402344 10.1753498,2.87402344 L12.1380129,2.87402344 C12.2833953,2.87402344 12.4005692,2.99435292 12.4005692,3.14117697 L12.4005692,3.47787874 C12.4005692,3.62580673 12.2833953,3.74503227 12.1380129,3.74503227" id="Fill-109" fill="#5A1F57"></path>
                                                                        <polygon id="Fill-110" fill="#C2B5CF" points="10.5884964 3.4375 11.7255173 3.4375 11.7255173 0.3125 10.5884964 0.3125"></polygon>
                                                                    </g>
                                                                </g>
                                                            </g>
                                                        </g>
                                                    </g>
                                                </g>
                                                <path d="M8.11447935,14.2883618 C8.11447935,14.2883618 7.98443556,15.026682 7.81607529,14.9052084 C7.58153203,14.8101944 7.33073329,14.7536671 7.06367907,14.7524644 C5.91302374,14.7512616 4.97717289,15.7170371 4.97485068,16.9101246 L4.96323963,25.1656633 C4.96091742,26.3587508 5.89212385,27.3269316 7.04510139,27.3293371 C7.50606018,27.3293371 7.9287025,27.1705794 8.27471188,26.9071861 C11.0613645,40.2007303 20.9934591,49.5889007 32.8367329,49.6093467 C44.6800067,49.6285901 54.6434511,40.2716901 57.4684202,26.9877677 C57.8132685,27.251161 58.2359108,27.412324 58.6980307,27.4135267 C59.8498472,27.4147294 60.785698,26.448954 60.7868591,25.2570692 L60.7996313,17.0003277 C60.8007924,15.8072403 59.8695859,14.8390594 58.7177695,14.836654 C58.4518764,14.836654 58.1987554,14.8931813 57.9653733,14.9869926 C31.2553075,18.1513204 21.9385988,0.00120270914 21.1513694,0 C21.1513694,0 9.98037553,10.4517196 8.11447935,14.2883618 Z" id="Fill-337-Copy-7" fill="#E7E5E2"></path>
                                            </g>
                                            <g id="mennesker/kvinne/⚙️/ansikt-forfra/-glad" transform="translate(21.093750, 34.726562)">
                                                <g id="Group" transform="translate(8.647059, 0.000000)">
                                                    <path d="M2.87292353,7.22825 C1.08545294,7.3645 0.585158824,4.69825 1.12374706,2.957 C1.22504118,2.627 1.81674706,1.1245 2.86427647,1.1245 C3.91057059,1.1245 4.37257059,1.94575 4.43680588,2.087 C5.20639412,3.7845 4.82839412,7.07825 2.87292353,7.22825" id="Fill-42" fill="#635E59"></path>
                                                    <path d="M22.8221824,7.22825 C24.6096529,7.3645 25.1099471,4.69825 24.5713588,2.957 C24.4700647,2.627 23.8783588,1.1245 22.8308294,1.1245 C21.7845353,1.1245 21.3225353,1.94575 21.2583,2.087 C20.4887118,3.7845 20.8667118,7.07825 22.8221824,7.22825" id="Fill-44" fill="#635E59"></path>
                                                    <path d="M13.4143943,10.293599 C14.4656116,10.1298533 15.1835471,10.2326155 15.4406607,10.5519206 C16.4111399,11.7588541 16.1007251,13.0357355 14.4357335,14.0839483 C13.5603266,14.6348638 12.3553579,14.8287657 11.7174403,14.5430923 C11.405505,14.403401 11.0407215,14.5460426 10.9026736,14.8616914 C10.7646257,15.1773402 10.9055892,15.5464663 11.2175244,15.6861577 C12.2718415,16.1583037 13.8932101,15.8973954 15.088202,15.145357 C17.3508269,13.7208979 17.8686368,11.5909037 16.3985749,9.76266615 C15.7764794,8.99009595 14.6752649,8.83247275 13.2264528,9.05815096 C12.8893068,9.11066742 12.6580682,9.4298049 12.7099668,9.77096446 C12.7618654,10.112124 13.0772484,10.3461155 13.4143943,10.293599 Z" id="Stroke-46" fill="#D1BFA3" fill-rule="nonzero"></path>
                                                    <path d="M20.4550725,19.4068011 C20.3993581,19.5359331 20.2715931,19.7831773 20.0662584,20.1088496 C19.7186777,20.6601323 19.2822035,21.2128217 18.7520799,21.7282166 C17.1723508,23.2640553 15.1161957,24.1521429 12.4992358,24.0709188 C9.94754128,23.9917204 7.9005772,23.1173372 6.29570208,21.7073363 C5.7064665,21.1896495 5.21999372,20.6352399 4.83115447,20.0826202 C4.60185625,19.7567408 4.4586811,19.5096585 4.39606229,19.3809031 C4.24544036,19.0711977 3.87522497,18.9436886 3.56916309,19.0961036 C3.26310121,19.2485187 3.13709224,19.6231414 3.28771418,19.9328469 C3.37843814,20.1193915 3.55499644,20.4240842 3.82487024,20.8076297 C4.26798438,21.437385 4.81899938,22.0653504 5.48583388,22.6512135 C7.29752129,24.2429142 9.61281951,25.2319193 12.4613642,25.3203312 C15.4276847,25.4123986 17.7991389,24.388128 19.6079212,22.6296001 C20.2127193,22.0416054 20.7098638,21.4120917 21.1076557,20.7811712 C21.3495447,20.3975217 21.5068715,20.0930711 21.5871745,19.9069489 C21.7236617,19.5906059 21.5808767,19.2221973 21.2682554,19.0840853 C20.9556341,18.9459733 20.5915597,19.0904581 20.4550725,19.4068011 Z" id="Stroke-48" fill="#D19E9C" fill-rule="nonzero"></path>
                                                </g>
                                            </g>
                                        </g>
                                    </g>
                                </g>
                            </g>
                        </g>
                    </g>
                </g>
            </g>
        </g>
    </g>
</svg>