<svg width="128" height="128" xmlns="http://www.w3.org/2000/svg" xmlns:xlink="http://www.w3.org/1999/xlink"><defs><circle id="a" cx="64" cy="64" r="64"/><path d="M58.49 28.517c2.062 8.686.105 24.22-5.243 35.833-9.609-4.407-38.013-2.64-46.203-.333 0 0-7.778-10.755-6.988-30.75 0 0 2.797-33.593 29.425-33.265C56.107.332 58.49 28.517 58.49 28.517" id="c"/><path d="M47.992 3.87C55.432 7.46 67 17.186 67 26.203V56H0V26.202c0-8.7 10.585-18.059 17.94-21.93-.373.223-.57.358-.57.358 1.268 2.058 4.673 11.196 15.356 11.196 10.686 0 15.663-9.81 15.663-11.728a33.247 33.247 0 0 0-.397-.227z" id="e"/></defs><g fill="none" fill-rule="evenodd"><mask id="b" fill="#fff"><use xlink:href="#a"/></mask><g mask="url(#b)"><path fill="#99BDCD" d="M-10.24 128h161V0h-161z"/></g><g mask="url(#b)"><g transform="translate(34.2 18.178)"><mask id="d" fill="#fff"><use xlink:href="#c"/></mask><use fill="#38383A" xlink:href="#c"/><g mask="url(#d)" fill="#8B5F26"><path d="M-13.588-1.238h85v98h-85z"/></g></g><path d="M47.904 84.744c1.267 2.026 4.827 37.613 15.51 37.613 10.686 0 15.51-36.249 15.51-38.136-16.36-9.368-31.02.523-31.02.523z" fill="#E7E5E2"/><g transform="translate(30.533 81.402)"><mask id="f" fill="#fff"><use xlink:href="#e"/></mask><use fill="#D8A25D" xlink:href="#e"/><g mask="url(#f)" fill="#005B82"><path d="M-40.944 91.565h156v-122h-156z"/></g></g><path d="M90.706 119.445h-18.94c-.845 0-1.53-.711-1.53-1.589v-10.572c0-.878.685-1.59 1.53-1.59h18.94c.845 0 1.53.712 1.53 1.59v10.572c0 .878-.685 1.589-1.53 1.589" fill="#D2242A"/><path d="M85.959 113.205c0 2.596-2.068 4.704-4.62 4.704-2.556 0-4.625-2.108-4.625-4.704 0-2.597 2.069-4.704 4.625-4.704 2.552 0 4.62 2.107 4.62 4.704M75.35 115.278h-.901l.963-2.403h.904zM86.713 115.278h-.559l.964-2.403h.559zM88.255 115.278h-.236l.961-2.403h.237z" fill="#FFF"/><path d="M77.828 115.267h.71a.064.064 0 0 0 .064-.065v-2.25a.064.064 0 0 0-.065-.064h-.717a.082.082 0 0 0-.083.085l-.282.707c-.017.037.011.081.05.081h.202c.03 0 .057.023.057.057v1.384c0 .036.028.065.064.065" fill="#C52D35"/><path d="M79.37 115.267h.71a.067.067 0 0 0 .07-.065v-2.25a.067.067 0 0 0-.07-.064h-1.106a.084.084 0 0 0-.083.085l-.283.707-.098.081h.566a.23.23 0 0 1 .23.232v1.209c0 .036.027.065.063.065M82.552 112.888h-.712a.065.065 0 0 0-.065.065v2.249c0 .036.03.065.065.065h.72a.082.082 0 0 0 .082-.085l.282-.708a.057.057 0 0 0-.053-.08h-.197a.055.055 0 0 1-.055-.057v-1.384c0-.036-.032-.065-.067-.065" fill="#C52D35"/><path d="M79.624 115.267h.468a.084.084 0 0 0 .082-.084l.283-.71a.058.058 0 0 0-.052-.08h-.198l-.583.874zM84.456 112.888h.847c.04 0 .07.04.053.078l-.896 2.265c-.007.023-.028.036-.052.036h-.766l.759-2.34a.06.06 0 0 1 .055-.039" fill="#C52D35"/><path d="M83.395 112.888H82.2c-.085 0 .343.084.374.162l.846 2.142c.017.047.06.075.109.075h.725l-.746-2.298a.115.115 0 0 0-.112-.081M81.833 113.65c0 .48-.06.509-.06.509s-.067-.46-.415-.46c-.342 0-.42.203-.42.355 0 .175.174.34.272.34h.623l-.368.829a.075.075 0 0 1-.068.044h-.284c-.296 0-1.07-.395-1.07-1.16 0-.766.576-1.219 1.055-1.219.396 0 .735.277.735.763z" fill="#C52D35"/><path d="M82.374 107.877h-1.962a.264.264 0 0 1-.263-.267v-.337c0-.147.117-.267.263-.267h1.962c.146 0 .263.12.263.267v.337a.264.264 0 0 1-.263.267" fill="#5A1F57"/><path fill="#C2B5CF" d="M80.825 107.57h1.137v-3.125h-1.137z"/><path d="M38.647 52.31s-.13.738-.298.616a2.015 2.015 0 0 0-.753-.152c-1.15-.001-2.086.964-2.088 2.157l-.012 8.256c-.002 1.193.929 2.161 2.082 2.164a2.02 2.02 0 0 0 1.23-.423c2.786 13.294 12.718 22.682 24.561 22.703 11.844.019 21.807-9.338 24.632-22.622.345.263.768.425 1.23.426 1.152.001 2.087-.965 2.089-2.157l.012-8.256c.002-1.194-.93-2.162-2.082-2.164-.265 0-.519.056-.752.15-26.71 3.165-36.027-14.986-36.814-14.987 0 0-11.17 10.452-13.037 14.289z" fill="#E7E5E2"/><g><path d="M54.46 60.132c-1.787.137-2.287-2.53-1.748-4.27.1-.33.693-1.833 1.74-1.833 1.046 0 1.508.82 1.573.962.77 1.698.391 4.991-1.564 5.141M74.41 60.132c1.788.137 2.288-2.53 1.75-4.27-.102-.33-.694-1.833-1.741-1.833-1.047 0-1.509.82-1.573.962-.77 1.698-.391 4.991 1.564 5.141" fill="#635E59"/><path d="M65.002 63.198c1.051-.164 1.77-.061 2.027.258.97 1.207.66 2.484-1.005 3.532-.876.55-2.08.745-2.719.46a.615.615 0 0 0-.814.318.628.628 0 0 0 .314.824c1.055.472 2.676.211 3.871-.54 2.263-1.425 2.78-3.555 1.31-5.383-.622-.773-1.723-.93-3.172-.705a.624.624 0 0 0-.516.713.619.619 0 0 0 .704.523z" fill="#D1BFA3" fill-rule="nonzero"/><path d="M72.043 72.31c-.056.13-.184.377-.389.703a8.843 8.843 0 0 1-1.314 1.62c-1.58 1.535-3.636 2.423-6.253 2.342-2.552-.08-4.599-.954-6.203-2.364a9.28 9.28 0 0 1-1.465-1.624 5.699 5.699 0 0 1-.435-.702.614.614 0 0 0-.827-.285.628.628 0 0 0-.281.837c.09.186.267.491.537.875.443.63.994 1.257 1.66 1.843 1.812 1.592 4.128 2.581 6.976 2.67 2.967.091 5.338-.933 7.147-2.691a10.083 10.083 0 0 0 1.5-1.849c.241-.383.399-.688.479-.874a.628.628 0 0 0-.319-.823.615.615 0 0 0-.813.323z" fill="#D19E9C" fill-rule="nonzero"/></g></g></g></svg>
