<svg xmlns="http://www.w3.org/2000/svg" xmlns:xlink="http://www.w3.org/1999/xlink" width="100" height="100"><defs><circle id="a" cx="50" cy="50" r="50"/></defs><g fill="none" fill-rule="evenodd" transform="translate(-413 -727)"><path fill="#FFF" d="M0 0h1273v1967H0z"/><path fill="#E9E7E7" d="M0 697h1280v445H0z"/><rect width="317" height="296" x="301.5" y="778.5" fill="#FFF" stroke="#9BD0B0" stroke-width="3" rx="8"/><use fill="#9BD0B0" transform="translate(413 727)" xlink:href="#a"/><path fill="#515658" d="M482.609 752.398h-38.102c-1.573 0-2.845 1.284-2.845 2.871v48.488a2.88 2.88 0 0 0 1.038 2.214 2.815 2.815 0 0 0 1.807.656h38.102c1.572 0 2.846-1.286 2.846-2.87v-48.488c0-1.587-1.274-2.871-2.846-2.871"/><path fill="#FFF" d="M445 763.292v37.079a2.387 2.387 0 0 0 2.382 2.392h31.895c1.314 0 2.38-1.07 2.38-2.392v-42.572a2.387 2.387 0 0 0-2.38-2.393H453.29l-8.29 7.886z"/><path fill="#C0C0BE" d="M453.29 755.406v5.492a2.388 2.388 0 0 1-2.382 2.394H445l8.29-7.886z"/><path fill="#505557" d="M457.836 788.74l2.441-.378c.252 1.263.652 2.149 1.2 2.659.549.51 1.295.765 2.239.765.917 0 1.634-.253 2.15-.758.518-.505.776-1.097.776-1.777 0-.496-.162-.952-.485-1.37-.558-.728-2.086-1.918-4.585-3.569-1.331-.884-2.26-1.576-2.785-2.076a6.144 6.144 0 0 1-1.288-1.77 4.782 4.782 0 0 1-.499-2.127c0-.932.27-1.777.81-2.535.539-.757 1.28-1.286 2.224-1.588-.638-.66-1.088-1.27-1.348-1.828a4.167 4.167 0 0 1-.391-1.784c0-1.244.45-2.322 1.348-3.235.9-.913 2.09-1.369 3.574-1.369 1.681 0 2.994.432 3.938 1.297.944.864 1.51 2.117 1.699 3.758l-2.522.277c-.189-1.185-.52-2.01-.991-2.477-.472-.466-1.108-.699-1.908-.699-.828 0-1.495.24-2.003.721s-.762 1.013-.762 1.595c0 .505.162.972.486 1.399.503.66 1.878 1.729 4.126 3.205 1.412.932 2.365 1.617 2.859 2.054.638.583 1.108 1.185 1.41 1.807.3.621.451 1.296.451 2.024 0 1.098-.328 2.035-.984 2.812-.378.447-1.07.899-2.077 1.355.719.592 1.256 1.229 1.611 1.908.355.68.533 1.409.533 2.186a4.7 4.7 0 0 1-.674 2.425c-.45.763-1.097 1.345-1.942 1.748a6.277 6.277 0 0 1-2.738.605c-1.717 0-3.079-.464-4.086-1.391-1.007-.928-1.61-2.217-1.807-3.868zm7.89-4.574c.664-.369 1.161-.798 1.49-1.289.327-.49.491-.969.491-1.435 0-.553-.233-1.136-.7-1.748-.477-.612-1.489-1.432-3.035-2.462-1.232-.816-2.149-1.486-2.751-2.01-.728.446-1.247.893-1.558 1.34-.31.447-.465.942-.465 1.486 0 .612.207 1.194.62 1.748.414.554 1.345 1.292 2.792 2.214a43.547 43.547 0 0 1 3.115 2.156z"/><path fill="#2F3237" d="M463.56 753.746a.923.923 0 0 1-.922-.927c0-.514.412-.93.921-.93.507 0 .92.416.92.93a.924.924 0 0 1-.92.927m5.688-3.796h-3.428v-.639a2.27 2.27 0 0 0-2.26-2.279 2.27 2.27 0 0 0-2.262 2.28v.638h-3.427c-1.69 0-3.06 1.382-3.06 3.086v3.712h17.497v-3.712c0-1.704-1.371-3.086-3.06-3.086"/></g></svg>