<svg width="100" height="100" xmlns="http://www.w3.org/2000/svg" xmlns:xlink="http://www.w3.org/1999/xlink"><defs><circle id="a" cx="50" cy="50" r="50"/><path d="M40.721 3.065C46.941 6.332 56 14.302 56 21.71V35c0 6.627-5.373 12-12 12H0V21.71C0 14.597 8.206 6.967 14.302 3.48c1.119 1.89 4.072 9.423 13.058 9.423 8.92 0 13.18-7.967 13.361-9.838z" id="c"/><path d="M42.3 24.34c-3.966-4.81-6.743-11.549-6.743-11.549-12.62-3.85-28.422.12-28.527.497C5.598 18.424.3 24.774.3 24.774.38 12.162 7.01-.026 21.285 0 35.926-.052 41.913 11.115 42.3 24.34z" id="e"/><path d="M20.988 19.576c-4.806 0-8.702-1.615-8.702-3.606 0-1.992 3.896-3.606 8.702-3.606s8.702 1.614 8.702 3.606c0 1.991-3.896 3.606-8.702 3.606m8.63-7.428c-3.665-1.374-5.129-1.818-8.165-1.818-3.036 0-5.1.018-9.085 2.06C3.156 17.11 0 .444 0 .444 0 27.014 13.117 34 21.314 34 29.641 34 43 27.9 43 0c0 0-3.94 15.69-13.382 12.148" id="g"/></defs><g fill="none" fill-rule="evenodd"><mask id="b" fill="#fff"><use xlink:href="#a"/></mask><g mask="url(#b)"><path fill="#99BDCD" d="M-8 100h126V0H-8z"/></g><g mask="url(#b)"><path d="M36.618 63.35c1.051 1.684 4.004 31.275 12.867 31.275 8.866 0 12.868-30.141 12.868-31.71-13.573-7.79-25.735.435-25.735.435z" fill="#E7E5E2"/><g transform="translate(22.206 59.563)"><mask id="d" fill="#fff"><use xlink:href="#c"/></mask><use fill="#D8A25D" xlink:href="#c"/><g mask="url(#d)" fill="#005B82"><path d="M-34.222 75.388h131v-96h-131z"/></g><g mask="url(#d)"><path d="M49.826 30.391H33.47c-.73 0-1.32-.568-1.32-1.27v-8.458c0-.702.59-1.272 1.32-1.272h16.357c.73 0 1.322.57 1.322 1.272v8.458c0 .702-.592 1.27-1.322 1.27" fill="#D2242A"/><path d="M45.727 25.4c0 2.077-1.786 3.763-3.99 3.763-2.208 0-3.995-1.686-3.995-3.763 0-2.078 1.787-3.764 3.995-3.764 2.204 0 3.99 1.686 3.99 3.764M36.565 27.058h-.779l.832-1.922h.78zM46.378 27.058h-.483l.833-1.922h.482zM47.71 27.058h-.204l.83-1.922h.204z" fill="#FFF"/><path d="M38.704 27.05h.613c.032 0 .056-.024.056-.053v-1.799c0-.03-.024-.052-.056-.052h-.62c-.04 0-.07.03-.07.068l-.244.566c-.015.03.01.064.042.064h.175c.026 0 .049.019.049.046v1.107c0 .03.024.052.055.052" fill="#C52D35"/><path d="M40.035 27.05h.615c.032 0 .06-.024.06-.053v-1.799c0-.03-.028-.052-.06-.052h-.956c-.04 0-.072.03-.072.068l-.244.566-.085.064h.49c.108 0 .197.082.197.186v.967c0 .03.025.052.055.052M42.784 25.146h-.614c-.031 0-.057.023-.057.052v1.8c0 .028.026.051.057.051h.62c.042 0 .072-.03.072-.068l.244-.566c.015-.03-.009-.064-.046-.064h-.17a.046.046 0 0 1-.048-.045v-1.108c0-.029-.028-.052-.058-.052" fill="#C52D35"/><path d="M40.256 27.05h.404c.04 0 .071-.032.071-.068l.244-.568c.014-.03-.01-.064-.045-.064h-.17l-.504.7zM44.429 25.146h.73c.036 0 .062.032.047.063l-.774 1.811c-.006.019-.024.03-.045.03h-.662l.656-1.873a.052.052 0 0 1 .048-.031" fill="#C52D35"/><path d="M43.513 25.146h-1.034c-.073 0 .297.067.323.13l.731 1.713c.015.038.053.06.094.06h.627l-.645-1.838a.1.1 0 0 0-.096-.065M42.163 25.756c0 .384-.051.407-.051.407s-.058-.368-.36-.368c-.294 0-.362.163-.362.284 0 .14.151.272.235.272h.538l-.318.663a.065.065 0 0 1-.059.035h-.244c-.256 0-.924-.316-.924-.928 0-.613.497-.975.91-.975.343 0 .635.222.635.61z" fill="#C52D35"/><path d="M42.631 21.137h-1.695c-.126 0-.227-.095-.227-.213v-.27c0-.117.101-.213.227-.213h1.695c.126 0 .227.096.227.213v.27c0 .118-.101.213-.227.213" fill="#5A1F57"/><path fill="#C2B5CF" d="M41.293 20.891h.982v-2.5h-.982z"/></g></g><path d="M70.81 47.476c-2.572 10.626-10.913 18.41-20.806 18.41-9.894 0-18.234-7.786-20.805-18.413-.25.094-.526.146-.817.146-1.135 0-2.058-.796-2.058-1.78v-7.183c0-.985.923-1.781 2.058-1.781.076 0 .151.004.225.01C30.123 24.632 39.125 15.22 50.004 15.22c10.88 0 19.882 9.412 21.398 21.666.07-.007.143-.01.216-.01 1.138 0 2.058.796 2.058 1.781v7.183c0 .984-.92 1.78-2.058 1.78-.287 0-.56-.051-.809-.143z" fill="#E7E5E2"/><path d="M43.08 38.116c-1.482.082-1.897-1.5-1.45-2.532.084-.196.574-1.087 1.443-1.087.868 0 1.25.487 1.304.571.638 1.007.326 2.96-1.297 3.048M58.599 38.116c1.482.082 1.897-1.5 1.452-2.532-.085-.196-.576-1.087-1.445-1.087-.867 0-1.25.487-1.304.571-.638 1.007-.325 2.96 1.297 3.048" fill="#635E59"/><path d="M51.744 40.858c.886-.138 1.75-.105 2.155.398.989 1.227.705 2.643-.96 3.689-.831.522-2.01.736-2.732.414" stroke="#D1BFA3" stroke-linecap="round"/><path d="M44.894 51.179s.756.88 2.861.863l2.107-.016" stroke="#593A32" stroke-width="1.013" stroke-linecap="round"/><g><g transform="translate(28.353 11.094)"><mask id="f" fill="#fff"><use xlink:href="#e"/></mask><g mask="url(#f)" fill="#3E3832"><path d="M-14-29.935h69v82h-69z"/></g></g></g><g><g transform="translate(28.28 35.844)"><mask id="h" fill="#fff"><use xlink:href="#g"/></mask><g mask="url(#h)" fill="#3E3832"><path d="M-13.31-24.727h71v81h-71z"/></g></g></g></g></g></svg>