<svg width="100" height="100" xmlns="http://www.w3.org/2000/svg" xmlns:xlink="http://www.w3.org/1999/xlink"><defs><circle id="a" cx="50" cy="50" r="50"/></defs><g fill="none" fill-rule="evenodd"><g><mask id="b" fill="#fff"><use xlink:href="#a"/></mask><g mask="url(#b)"><path fill="#99BDCD" d="M-8 100h126V0H-8z"/></g></g><path d="M70.224 21.607H30.076a2.989 2.989 0 0 0-2.998 2.983v50.37a2.967 2.967 0 0 0 .88 2.11c.066.064.138.131.214.19a2.988 2.988 0 0 0 1.904.683h40.148c1.657 0 3-1.336 3-2.982V24.59a2.99 2.99 0 0 0-3-2.984" fill="#515658"/><path d="M30.792 32.618V71.37a2.508 2.508 0 0 0 2.515 2.502h33.686a2.508 2.508 0 0 0 2.516-2.502V26.876a2.509 2.509 0 0 0-2.516-2.5H39.549l-8.757 8.242z" fill="#FFF"/><path d="M39.55 24.376v5.738a2.51 2.51 0 0 1-2.517 2.504h-6.241l8.757-8.242z" fill="#C0C0BE"/><path d="M50.152 23.008a.966.966 0 0 1-.971-.963c0-.534.434-.966.97-.966.535 0 .97.432.97.966a.967.967 0 0 1-.97.963m5.994-3.944h-3.612v-.663a2.375 2.375 0 0 0-2.381-2.368 2.374 2.374 0 0 0-2.384 2.368v.663h-3.61a3.217 3.217 0 0 0-3.226 3.207v3.856h18.437V22.27a3.216 3.216 0 0 0-3.224-3.207" fill="#2F3237"/><path fill="#A59D96" d="M44.303 44.337h19.654v-2.173H44.303zM44.303 49.252h19.654V47.08H44.303zM44.303 54.167h19.654v-2.172H44.303zM44.303 59.083h19.654V56.91H44.303zM42.102 41.322h-4.025v3.858H42.102v-3.858zm-3.173 3.016h2.32v-2.173h-2.32v2.173zM42.102 46.237h-4.025v3.858H42.102v-3.858zm-3.173 3.015h2.32V47.08h-2.32v2.172zM42.102 51.152h-4.025V55.01H42.102V51.152zm-3.173 3.014h2.32v-2.17h-2.32v2.17zM42.102 56.068h-4.025v3.858H42.102v-3.858zm-3.173 3.015h2.32v-2.172h-2.32v2.172z"/><path stroke="#2F3237" stroke-width="2.361" d="M38.107 41.08l2.172 2.456 3.057-3.904M38.107 46.116l2.172 2.457 3.057-3.904"/></g></svg>