<svg width="142" height="144" xmlns="http://www.w3.org/2000/svg" xmlns:xlink="http://www.w3.org/1999/xlink"><defs><ellipse id="a" cx="71.23" cy="71.905" rx="70.335" ry="71.186"/></defs><g fill="none" fill-rule="evenodd"><g><mask id="b" fill="#fff"><use xlink:href="#a"/></mask><use fill="#CCDEE6" xlink:href="#a"/><g mask="url(#b)"><path d="M65.469 91.358c0 1.266-1.013 2.29-2.263 2.29H30.592c-1.25 0-2.262-1.024-2.262-2.29 0-1.263 1.012-2.29 2.262-2.29h32.614c1.25 0 2.263 1.027 2.263 2.29M68.276 86.333c0 1.263-1.012 2.289-2.263 2.289H33.402c-1.25 0-2.262-1.026-2.262-2.29 0-1.265 1.011-2.29 2.262-2.29h32.611c1.251 0 2.263 1.025 2.263 2.29M70.32 81.303c0 1.264-1.014 2.29-2.263 2.29H35.443c-1.25 0-2.26-1.026-2.26-2.29 0-1.265 1.01-2.29 2.26-2.29h32.614c1.25 0 2.263 1.025 2.263 2.29M67.648 76.274c0 1.265-1.014 2.29-2.263 2.29H41.824c-1.25 0-2.262-1.025-2.262-2.29 0-1.266 1.011-2.29 2.262-2.29h23.561c1.249 0 2.263 1.024 2.263 2.29" fill="#CCC8C4"/><path d="M24.363 91.056h2.811c.769 0 1.41 1.356 1.41 1.356l22.573-2.821V76.274l-7.412-2.29s-.17-.562.68-1.122c.855-.561 4.86-2.242 4.86-2.242s4.725-2.24 3.875-4.313c-.852-2.067-3.96-1.12-3.96-1.12s-4.905 1.055-7.242 1.64c-2.958.738-5.965 2.457-8.182 3.88-2.213 1.422-5.447 4.138-5.447 5.086l-3.966.217v15.046z" fill="#CCC8C4"/><path fill="#BDD1D0" d="M-8 93.78h32.363V73.406H-8z"/><path fill="#6998A5" d="M18.285 93.78h6.078V73.406h-6.078z"/><path d="M21.28 91.656c.706 0 1.277-.58 1.277-1.295 0-.713-.57-1.292-1.277-1.292S20 89.65 20 90.361c0 .715.572 1.295 1.279 1.295" fill="#38363A"/><path d="M97.69 45.317H49.094c-2.005 0-3.628 1.645-3.628 3.677v62.085a3.691 3.691 0 0 0 1.324 2.835 3.584 3.584 0 0 0 2.304.84H97.69c2.005 0 3.63-1.646 3.63-3.675V48.994c0-2.032-1.625-3.677-3.63-3.677" fill="#515658"/><path d="M49.96 58.889v47.766c0 1.707 1.365 3.084 3.046 3.084h40.772c1.682 0 3.046-1.377 3.046-3.084V51.812c0-1.703-1.364-3.083-3.046-3.083H60.56l-10.6 10.16z" fill="#FFF"/><path d="M60.56 48.73v7.073c0 1.704-1.363 3.086-3.045 3.086h-7.554l10.6-10.16z" fill="#C0C0BE"/><path d="M73.394 47.044a1.18 1.18 0 0 1-1.175-1.188c0-.657.525-1.19 1.175-1.19.646 0 1.174.533 1.174 1.19a1.18 1.18 0 0 1-1.174 1.188m7.254-4.861h-4.372v-.818c0-1.612-1.291-2.918-2.882-2.918-1.596 0-2.885 1.306-2.885 2.918v.818h-4.371c-2.155 0-3.904 1.77-3.904 3.952v4.753H84.55v-4.753c0-2.182-1.748-3.952-3.902-3.952" fill="#2F3237"/><path d="M24.363 91.056h2.811c.769 0 1.41 1.356 1.41 1.356l14.528-3.343-.277-11.637.91-3.449s-.17-.561.68-1.121c.855-.561 4.86-2.242 4.86-2.242s4.725-2.24 3.875-4.313c-.852-2.067-3.96-1.12-3.96-1.12s-4.905 1.055-7.242 1.64c-2.958.738-5.965 2.457-8.182 3.88-2.213 1.422-5.447 4.138-5.447 5.086l-3.966.217v15.046z" fill="#CCC8C4"/></g></g><g fill="#515658"><path d="M74.533 88h-6.065V76.297h3.033c2.996 0 5.434-2.49 5.434-5.55 0-3.061-2.438-5.552-5.434-5.552-2.997 0-5.435 2.49-5.435 5.551H60C60 64.27 65.16 59 71.501 59 77.841 59 83 64.27 83 70.746c0 5.405-3.593 9.97-8.467 11.332V88zM75 94.5a3.5 3.5 0 1 1-7.002-.002A3.5 3.5 0 0 1 75 94.5"/></g></g></svg>