<svg width="161px" height="125px" xmlns="http://www.w3.org/2000/svg"><g transform="translate(0 -1)" fill="none" fill-rule="evenodd"><path d="M160.723 90.366v13.492a5.137 5.137 0 0 1-5.136 5.141H5.977a5.138 5.138 0 0 1-5.136-5.14V90.365h159.882z" fill="#ABB2BA"/><path d="M.841 90.366V6.44c0-2.84 2.3-5.141 5.136-5.141h149.61a5.138 5.138 0 0 1 5.136 5.141v83.925H.84z" fill="#506572"/><path d="M5.992 16.522V8.774c0-1.385 1.176-2.508 2.625-2.508h144.33c1.45 0 2.625 1.123 2.625 2.508v7.748H5.992z" fill="#CCE1F3"/><path d="M5.992 85.26V14.936h149.58v70.326H5.992z" fill="#EFEFEF"/><path fill="#ABB2BA" d="M62.04 122.954h37.484V109H62.041z"/><path fill="#ABB2BA" d="M47.586 125.506h66.393v-4.52H47.586z"/><path d="M81.994 100.896a1.212 1.212 0 0 1-2.422 0 1.212 1.212 0 1 1 2.422 0" fill="#959BA5"/><g transform="translate(21.955 33.698)"><path d="M1.582 0h33.674c.873 0 1.582.708 1.582 1.582v40.79c0 .873-.709 1.581-1.582 1.581H1.582A1.582 1.582 0 0 1 0 42.371V1.582C0 .708.708 0 1.582 0zM81.835 0h33.674c.874 0 1.582.708 1.582 1.582v40.79c0 .873-.708 1.581-1.582 1.581H81.835a1.582 1.582 0 0 1-1.582-1.582V1.582c0-.874.709-1.582 1.582-1.582zM42.366 0H76.04c.874 0 1.582.708 1.582 1.582v22.143c0 .873-.708 1.582-1.582 1.582H42.366a1.582 1.582 0 0 1-1.582-1.582V1.582c0-.874.709-1.582 1.582-1.582z" fill="#B7B1A9" opacity=".754"/><path d="M3.422 6.66h29.993c.437 0 .791.354.791.79v14.402a.791.791 0 0 1-.79.79H3.421a.791.791 0 0 1-.79-.79V7.45c0-.437.353-.791.79-.791zM83.676 6.66h29.993c.437 0 .79.354.79.79v14.402a.791.791 0 0 1-.79.79H83.676a.791.791 0 0 1-.791-.79V7.45c0-.437.354-.791.79-.791zM44.207 6.66H74.2c.437 0 .79.354.79.79v14.402a.791.791 0 0 1-.79.79H44.207a.791.791 0 0 1-.791-.79V7.45c0-.437.354-.791.79-.791zM3.422 25.307h29.993c.437 0 .791.354.791.79V40.5a.791.791 0 0 1-.79.79H3.421a.791.791 0 0 1-.79-.79V26.098c0-.437.353-.791.79-.791zM83.676 25.307h29.993c.437 0 .79.354.79.79V40.5a.791.791 0 0 1-.79.79H83.676a.791.791 0 0 1-.791-.79V26.098c0-.437.354-.791.79-.791z" fill="#FFF"/><rect stroke="#005B82" stroke-width=".899" fill="#005B82" x="5.712" y="17.764" width="5.679" height="1.765" rx=".882"/><rect stroke="#005B82" stroke-width=".899" fill="#005B82" x="5.712" y="37.743" width="5.679" height="1.765" rx=".882"/><rect stroke="#005B82" stroke-width=".899" fill="#005B82" x="85.965" y="37.743" width="5.679" height="1.765" rx=".882"/><rect stroke="#005B82" stroke-width=".899" fill="#005B82" x="46.496" y="17.764" width="5.679" height="1.765" rx=".882"/><rect stroke="#005B82" stroke-width=".899" fill="#005B82" x="85.965" y="17.764" width="5.679" height="1.765" rx=".882"/></g><rect stroke="#0067C5" fill="#0067C5" x="22.455" y="29.802" width="9.245" height="1.93" rx=".965"/><rect fill="#CDE7D8" x="21.955" y="17.581" width="117.091" height="10.256" rx="1"/></g></svg>
