<svg xmlns="http://www.w3.org/2000/svg" width="24px" height="24px" viewBox="0 0 24 24" version="1.1">
    <title>Advarsel</title>
    <g id="Advarsel" stroke="none" stroke-width="1" fill="none" fill-rule="evenodd">
        <g id="advarsel">
            <path d="M12.2048036,-0.00417391304 L11.9908856,-0.00208690833 C8.77689832,0.054262219 5.75178499,1.35342265 3.47381934,3.65643236 C1.17915766,5.9761381 -0.0532186273,9.01272996 0.00208699771,12.2079342 C0.116872257,18.8206086 5.29786146,24.0005543 11.7967941,24.0005543 L12.0086251,23.9984673 C18.7350413,23.8826386 24.114296,18.4042512 23.9984672,11.7894897 C23.883682,5.17681529 18.7026928,-0.00417391304 12.2048036,-0.00417391304 Z" id="Shape" fill="#FFB249" fill-rule="nonzero"/>
            <path d="M11.4782609,6.25669565 C11.4782609,5.96869565 11.712,5.73495652 12,5.73495652 C12.2869565,5.73495652 12.5217391,5.96869565 12.5217391,6.25669565 L12.5217391,13.5610435 C12.5217391,13.8490435 12.2869565,14.0827826 12,14.0827826 C11.712,14.0827826 11.4782609,13.8490435 11.4782609,13.5610435 L11.4782609,6.25669565 Z" id="Path" fill="#FFFFFF" fill-rule="evenodd"/>
            <path d="M12.0187826,18.2566957 C12.0125217,18.2566957 12.0062609,18.2566957 12,18.2566957 C11.4313043,18.2566957 10.965913,17.8017391 10.9565217,17.232 C10.946087,16.656 11.4052174,16.1801739 11.9812174,16.1707826 C11.9874783,16.1707826 11.9937391,16.1697391 12,16.1697391 C12.5686957,16.1697391 13.0330435,16.6257391 13.0434783,17.1954783 C13.053913,17.7714783 12.5937391,18.2462609 12.0187826,18.2566957 Z" id="Path" fill="#FFFFFF" fill-rule="evenodd"/>
        </g>
    </g>
</svg>
