<svg xmlns="http://www.w3.org/2000/svg" xmlns:xlink="http://www.w3.org/1999/xlink" width="595" height="417" viewBox="0 0 595 417">
    <defs>
        <path id="a" d="M173.065 13.24C199.5 27.346 238 61.77 238 93.764V191c0 6.627-5.373 12-12 12H0V93.765C0 63.05 34.874 30.097 60.785 15.028c4.754 8.162 17.304 40.703 55.496 40.703 37.91 0 56.012-34.41 56.784-42.492z"/>
        <path id="c" d="M182.66 104.206c-17.128-20.59-29.117-49.444-29.117-49.444-54.496-16.482-122.732.51-123.185 2.126-6.185 21.99-29.063 49.177-29.063 49.177C1.642 52.07 30.273-.108 91.911 0c63.225-.226 89.076 47.585 90.748 104.205z"/>
        <path id="e" d="M90.298 83.485c-20.679 0-37.44-6.886-37.44-15.379 0-8.493 16.761-15.379 37.44-15.379 20.678 0 37.44 6.886 37.44 15.38 0 8.492-16.762 15.378-37.44 15.378m37.13-31.676c-15.77-5.86-22.066-7.754-35.13-7.754-13.064 0-21.945.078-39.088 8.787C13.58 72.97 0 1.89 0 1.89 0 115.208 56.433 145 91.701 145 127.526 145 185 118.983 185 0c0 0-16.95 66.91-57.572 51.809"/>
    </defs>
    <g fill="none" fill-rule="evenodd">
        <path fill="#FDBD68" d="M382.905 147.68c8.663-5.825 20.618-3.816 26.696 4.49 6.078 8.306 3.978 19.76-4.685 25.585-8.667 5.825-20.618 3.816-26.697-4.49-6.078-8.307-3.977-19.76 4.686-25.585"/>
        <path stroke="#635E59" stroke-linecap="round" stroke-linejoin="round" stroke-width="3" d="M572.308 407.174H430.769M502.15 407.174l70.158-163.389L472.05 113.261"/>
        <path fill="#EFEFEF" d="M430.206 105.101l22.558-15.07c13.163-8.795 31.316-5.76 40.548 6.774 9.228 12.535 6.043 29.826-7.117 38.62L463.634 150.5c3.828 23.102-5.927 47.338-27.385 61.674L360 108.624c21.462-14.335 48.702-14.817 70.206-3.523"/>
        <path fill="#635E59" d="M557.564 241.848c0-8.583 7.26-15.544 16.216-15.544 8.96 0 16.22 6.961 16.22 15.544 0 8.582-7.26 15.543-16.22 15.543-8.956 0-16.216-6.96-16.216-15.543"/>
        <g>
            <path fill="#E2D1B6" d="M356.753 303.79l-9.457-15.42-4.504 17.514 7.55.844z"/>
            <path fill="#E9C264" d="M364.74 388.748l4.659-.703-12.439-82.85-4.653.694z"/>
            <path fill="#DAB25B" d="M347.656 306.591l12.432 82.846 4.654-.69-12.434-82.856z"/>
            <path fill="#E9C264" d="M360.088 389.437l-12.432-82.846-4.662.697 12.442 82.845zM355.077 303.024c-.875.13-1.299 1.339-2.456 1.509a1.473 1.473 0 0 1-.52-.023l.205 1.38 4.654-.696-.195-1.285s-.808-1.015-1.688-.885"/>
            <path fill="#DAB25B" d="M352.1 304.51c-.803-.177-1.268-1.027-2.501-.848-1.24.187-1.429 1.137-2.15 1.55l.207 1.38 4.652-.702-.208-1.38z"/>
            <path fill="#E9C264" d="M347.45 305.212a1.4 1.4 0 0 1-.49.166c-1.17.17-1.92-.844-2.8-.715-.871.124-1.344 1.34-1.344 1.34l.177 1.285 4.664-.697-.208-1.38z"/>
            <path fill="#545757" d="M347.303 288.37l-1.593 6.199 4.933-.74z"/>
            <path fill="#C52C35" d="M383.654 353.39l13.937 3.225a2.154 2.154 0 0 1 1.618 2.606l-1.87 8.096a2.183 2.183 0 0 1-2.61 1.629l-13.932-3.226a2.18 2.18 0 0 1-1.63-2.606l1.883-8.098a2.163 2.163 0 0 1 2.604-1.626"/>
            <path fill="#E2D1B6" d="M411.322 274.69l-4.545-17.501-9.414 15.418 6.976 3.014z"/>
            <path fill="#50808B" d="M394.157 358.272l4.652.69 12.302-82.874-4.654-.69z"/>
            <path fill="#0C576F" d="M401.8 274.706l-12.3 82.875 4.656.692 12.303-82.87z"/>
            <path fill="#50808B" d="M389.5 357.581l12.306-82.874-4.662-.69-12.304 82.875zM409.947 273.47c-.874-.136-1.634.89-2.804.718a1.286 1.286 0 0 1-.479-.17l-.205 1.38 4.651.69.196-1.286s-.483-1.203-1.36-1.333"/>
            <path fill="#0C576F" d="M406.659 274.018c-.713-.4-.903-1.358-2.142-1.54-1.246-.183-1.706.673-2.504.856l-.211 1.378 4.655.685.202-1.38z"/>
            <path fill="#50808B" d="M402.008 273.333a1.31 1.31 0 0 1-.508.012c-1.174-.172-1.593-1.361-2.473-1.505-.88-.123-1.687.891-1.687.891l-.196 1.292 4.662.683.202-1.373z"/>
            <path fill="#545757" d="M406.777 257.188l-3.328 5.46 4.934.737zM380.92 355.565l18.165 4.203-.571 2.479-18.165-4.212z"/>
            <path fill="#E2D1B6" d="M388.205 319.66l-6.32-16.943-7.781 16.318 7.248 2.275z"/>
            <path fill="#97AB48" d="M381.671 363.403l4.705.2 1.764-42.53-4.7-.205z"/>
            <path fill="#727D31" d="M378.742 320.662l-1.763 42.528 4.693.212 1.77-42.533z"/>
            <path fill="#97AB48" d="M376.972 363.19l1.763-42.528-4.697-.212-1.765 42.539zM386.712 318.585c-.886-.04-1.528 1.062-2.708 1.004a1.5 1.5 0 0 1-.503-.113l-.066 1.392 4.705.206.066-1.296s-.609-1.156-1.494-1.193"/>
            <path fill="#727D31" d="M383.502 319.477c-.763-.337-1.046-1.257-2.296-1.31-1.254-.054-1.624.843-2.403 1.096l-.06 1.404 4.7.202.059-1.392z"/>
            <path fill="#97AB48" d="M378.803 319.264a1.264 1.264 0 0 1-.508.076c-1.186-.047-1.73-1.21-2.617-1.236-.89-.037-1.587 1.047-1.587 1.047l-.051 1.298 4.703.22.06-1.405z"/>
            <path fill="#545757" d="M381.884 302.717l-2.759 5.774 5.001.224z"/>
            <path fill="#78706A" d="M403.319 343.33h-64.177l7.692 66.086h48.78z"/>
        </g>
        <g>
            <path fill="#E7E5E2" d="M93.647 223.496c4.506 7.196 17.16 133.629 55.147 133.629 37.995 0 55.147-128.784 55.147-135.488-58.17-33.281-110.294 1.859-110.294 1.859z"/>
            <g transform="translate(31.882 207.313)">
                <mask id="b" fill="#fff">
                    <use xlink:href="#a"/>
                </mask>
                <use fill="#D8A25D" xlink:href="#a"/>
                <g mask="url(#b)">
                    <path fill="#5C4378" d="M-145.444 323.972h555v-413h-555z"/>
                </g>
                <g mask="url(#b)">
                    <path fill="#D2242A" d="M210.133 132.435h-68.01c-3.036 0-5.493-2.51-5.493-5.612V89.467c0-3.1 2.457-5.616 5.492-5.616h68.011c3.035 0 5.497 2.515 5.497 5.616v37.356c0 3.101-2.462 5.612-5.497 5.612"/>
                    <path fill="#FFF" d="M193.087 110.388c0 9.174-7.426 16.62-16.589 16.62-9.179 0-16.608-7.446-16.608-16.62 0-9.174 7.43-16.62 16.608-16.62 9.163 0 16.59 7.446 16.59 16.62M154.993 117.714h-3.237l3.46-8.491h3.245zM195.796 117.714h-2.006l3.46-8.491h2.006zM201.334 117.714h-.85l3.452-8.491h.85z"/>
                    <path fill="#C52D35" d="M163.889 117.673h2.548a.229.229 0 0 0 .233-.23v-7.945a.229.229 0 0 0-.233-.23h-2.576a.292.292 0 0 0-.296.3l-1.013 2.5c-.062.129.04.285.176.285h.728c.11 0 .203.082.203.203v4.887c0 .129.101.23.23.23"/>
                    <path fill="#C52D35" d="M169.424 117.673h2.556c.133 0 .246-.101.246-.23v-7.945c0-.13-.113-.23-.246-.23h-3.974c-.167 0-.3.132-.3.3l-1.017 2.5-.35.285h2.033c.452 0 .823.359.823.819v4.271c0 .129.1.23.23.23M180.853 109.268h-2.556a.231.231 0 0 0-.233.23v7.946c0 .129.105.23.233.23h2.583a.292.292 0 0 0 .296-.3l1.013-2.5c.063-.137-.035-.285-.19-.285h-.706a.197.197 0 0 1-.198-.2v-4.89c0-.13-.117-.23-.242-.23"/>
                    <path fill="#C52D35" d="M170.341 117.673h1.68a.299.299 0 0 0 .295-.296l1.013-2.508a.204.204 0 0 0-.187-.285h-.709l-2.092 3.09zM187.692 109.268h3.039c.148 0 .253.14.19.277l-3.217 8c-.024.082-.098.129-.187.129h-2.75l2.726-8.27a.215.215 0 0 1 .199-.136"/>
                    <path fill="#C52D35" d="M183.882 109.268h-4.297c-.304 0 1.235.297 1.344.574l3.039 7.567a.408.408 0 0 0 .39.265h2.605l-2.68-8.121a.414.414 0 0 0-.401-.285M178.27 111.964c0 1.692-.213 1.794-.213 1.794s-.242-1.623-1.493-1.623c-1.227 0-1.507.718-1.507 1.252 0 .62.627 1.202.978 1.202h2.236l-1.32 2.929a.27.27 0 0 1-.246.156h-1.017c-1.064 0-3.842-1.396-3.842-4.1 0-2.707 2.065-4.306 3.787-4.306 1.422 0 2.638.98 2.638 2.696z"/>
                    <path fill="#5A1F57" d="M180.216 91.563h-7.048a.942.942 0 0 1-.942-.944v-1.19c0-.518.42-.944.942-.944h7.048c.522 0 .943.426.943.944v1.19c0 .523-.42.944-.943.944"/>
                    <path fill="#C2B5CF" d="M174.652 90.476h4.083V79.435h-4.083z"/>
                </g>
            </g>
            <path fill="#E7E5E2" d="M240.182 155.67c-11.02 45.4-46.766 78.662-89.164 78.662-42.402 0-78.149-33.268-89.164-78.673-1.073.4-2.257.62-3.501.62-4.867 0-8.824-3.397-8.824-7.605v-30.69c0-4.207 3.957-7.609 8.824-7.609.325 0 .647.015.963.045 6.497-52.357 45.075-92.576 91.702-92.576 46.625 0 85.207 40.217 91.705 92.572.304-.027.612-.041.924-.041 4.877 0 8.824 3.402 8.824 7.61v30.69c0 4.207-3.947 7.604-8.824 7.604-1.23 0-2.4-.216-3.465-.608z"/>
            <path fill="#635E59" d="M121.669 115.65c-6.388.35-8.176-6.4-6.251-10.8.362-.839 2.476-4.639 6.22-4.639 3.739 0 5.39 2.079 5.62 2.436 2.75 4.295 1.404 12.628-5.59 13.003M188.548 115.65c6.388.35 8.176-6.4 6.255-10.8-.366-.839-2.48-4.639-6.224-4.639-3.74 0-5.39 2.079-5.62 2.436-2.75 4.295-1.4 12.628 5.589 13.003"/>
            <path stroke="#D1BFA3" stroke-linecap="round" d="M159.005 127.349c3.82-.587 7.54-.446 9.289 1.7 4.26 5.234 3.037 11.276-4.137 15.739-3.584 2.229-8.661 3.142-11.773 1.765"/>
            <path stroke="#593A32" stroke-linecap="round" stroke-width="1.013" d="M129.487 171.385s3.258 3.756 12.33 3.686l9.077-.07"/>
            <g>
                <g transform="translate(58.26 .219)">
                    <mask id="d" fill="#fff">
                        <use xlink:href="#c"/>
                    </mask>
                    <g fill="#3E3832" mask="url(#d)">
                        <path d="M-60.455-128.161h298v349h-298z"/>
                    </g>
                </g>
            </g>
            <g>
                <g transform="translate(57.912 105.969)">
                    <mask id="f" fill="#fff">
                        <use xlink:href="#e"/>
                    </mask>
                    <g fill="#3E3832" mask="url(#f)">
                        <path d="M-57.262-105.455h304v347h-304z"/>
                    </g>
                </g>
            </g>
        </g>
        <path fill="#525759" d="M0 416.828h595V408H0z"/>
    </g>
</svg>
