<svg xmlns="http://www.w3.org/2000/svg" xmlns:xlink="http://www.w3.org/1999/xlink" width="60" height="60" viewBox="0 0 134 134">
    <defs>
        <path id="a" d="M0 0h133.999v134H0z"/>
    </defs>
    <g fill="none" fill-rule="evenodd">
        <mask id="b" fill="#fff">
            <use xlink:href="#a"/>
        </mask>
        <path fill="#CCDEE6" d="M132.312 52.072a4.935 4.935 0 0 0-2.172-3.089 4.891 4.891 0 0 0-3.745-.639 4.92 4.92 0 0 0-3.09 2.189 4.907 4.907 0 0 0-.637 3.732 57.744 57.744 0 0 1 1.437 12.734c0 31.489-25.617 57.106-57.106 57.106-31.488 0-57.105-25.617-57.105-57.106 0-31.488 25.617-57.105 57.105-57.105 8.915 0 17.453 1.997 25.375 5.936a4.915 4.915 0 0 0 3.791.255 4.882 4.882 0 0 0 2.84-2.482 4.921 4.921 0 0 0 .263-3.778 4.916 4.916 0 0 0-2.486-2.855C87.478 2.345 77.458 0 66.999 0 30.056 0 0 30.055 0 66.999 0 103.944 30.056 134 66.999 134c36.944 0 67-30.056 67-67.001 0-5-.567-10.022-1.687-14.927" mask="url(#b)"/>
        <path fill="#99BDCD" d="M131.325 6.105a4.882 4.882 0 0 0-3.633-1.076 4.922 4.922 0 0 0-3.36 1.847L63.025 86.905 32.447 56.358a4.96 4.96 0 0 0-7 0 4.953 4.953 0 0 0 0 6.997l34.503 34.47c.944.942 2.203 1.439 3.714 1.439a4.992 4.992 0 0 0 3.662-1.863l64.746-84.35a4.909 4.909 0 0 0 1.062-3.633 4.91 4.91 0 0 0-1.81-3.313z" mask="url(#b)"/>
        <path fill="#99BDCD" d="M63.001 99a5 5 0 1 0-.003-10.001A5 5 0 0 0 63 99" mask="url(#b)"/>
    </g>
</svg>
