<svg xmlns="http://www.w3.org/2000/svg" xmlns:xlink="http://www.w3.org/1999/xlink" width="160" height="162" viewBox="0 0 80 81">
    <defs>
        <ellipse id="a" cx="40.129" cy="40.446" rx="39.625" ry="40.042"/>
    </defs>
    <g fill="none" fill-rule="evenodd">
        <mask id="b" fill="#fff">
            <use xlink:href="#a"/>
        </mask>
        <use fill="#CCDEE6" xlink:href="#a"/>
        <g mask="url(#b)">
            <path fill="#CCC8C4" d="M36.884 51.389c0 .712-.57 1.288-1.275 1.288H17.235a1.281 1.281 0 0 1-1.275-1.288c0-.71.57-1.288 1.275-1.288h18.374c.704 0 1.275.577 1.275 1.288M38.465 48.562c0 .71-.57 1.288-1.274 1.288H18.818a1.281 1.281 0 0 1-1.275-1.288c0-.712.57-1.288 1.275-1.288H37.19a1.28 1.28 0 0 1 1.274 1.288M39.617 45.733c0 .711-.571 1.288-1.275 1.288H19.968a1.281 1.281 0 0 1-1.274-1.288c0-.712.57-1.289 1.274-1.289h18.374c.704 0 1.275.577 1.275 1.289M38.112 42.904c0 .711-.572 1.289-1.275 1.289H23.563a1.281 1.281 0 0 1-1.275-1.289c0-.712.57-1.288 1.275-1.288h13.274c.703 0 1.275.576 1.275 1.288"/>
            <path fill="#CCC8C4" d="M13.725 51.22h1.584c.433 0 .795.762.795.762l12.717-1.587v-7.491l-4.176-1.289s-.095-.315.384-.63c.48-.316 2.737-1.261 2.737-1.261s2.662-1.26 2.183-2.427c-.48-1.162-2.231-.629-2.231-.629s-2.763.593-4.08.922c-1.666.415-3.36 1.382-4.61 2.182-1.246.8-3.068 2.328-3.068 2.862l-2.235.121v8.464z"/>
            <path fill="#BDD1D0" d="M-4.507 52.752h18.232V41.29H-4.507z"/>
            <path fill="#6998A5" d="M10.301 52.752h3.424V41.29h-3.424z"/>
            <path fill="#38363A" d="M11.989 51.557c.398 0 .72-.327.72-.729a.723.723 0 0 0-.72-.726.724.724 0 0 0-.72.726c0 .402.322.729.72.729"/>
            <path fill="#515658" d="M55.036 25.491H27.66c-1.13 0-2.044.925-2.044 2.068v34.923a2.076 2.076 0 0 0 .746 1.595 2.02 2.02 0 0 0 1.298.473h27.377c1.13 0 2.046-.927 2.046-2.068V27.56a2.056 2.056 0 0 0-2.046-2.068"/>
            <path fill="#FFF" d="M28.147 33.125v26.869c0 .96.768 1.734 1.715 1.734h22.97c.948 0 1.717-.775 1.717-1.734v-30.85c0-.958-.769-1.734-1.716-1.734H34.119l-5.972 5.715z"/>
            <path fill="#C0C0BE" d="M34.119 27.41v3.98c0 .958-.768 1.735-1.716 1.735h-4.256l5.972-5.715z"/>
            <path fill="#2F3237" d="M41.349 26.462a.664.664 0 0 1-.662-.668c0-.37.296-.67.662-.67.364 0 .661.3.661.67 0 .37-.297.668-.661.668m4.086-2.734h-2.462v-.46c0-.907-.728-1.642-1.624-1.642-.9 0-1.626.735-1.626 1.642v.46h-2.462c-1.214 0-2.2.996-2.2 2.223v2.673h12.573v-2.673c0-1.227-.985-2.223-2.199-2.223"/>
            <g fill="#515658">
                <path d="M44.277 45.204v2.088h-5.953V34.572h5.953v2.088zM41.379 56.773c1.985 0 3.595-1.626 3.595-3.632 0-2.006-1.61-3.632-3.595-3.632s-3.595 1.626-3.595 3.632c0 2.006 1.61 3.632 3.595 3.632"/>
            </g>
            <path fill="#CCC8C4" d="M13.725 51.22h1.584c.433 0 .795.762.795.762l8.185-1.88-.157-6.546.513-1.94s-.095-.316.384-.631c.48-.316 2.737-1.261 2.737-1.261s2.662-1.26 2.183-2.427c-.48-1.162-2.231-.629-2.231-.629s-2.763.593-4.08.922c-1.666.415-3.36 1.382-4.61 2.182-1.246.8-3.068 2.328-3.068 2.862l-2.235.121v8.464z"/>
        </g>
    </g>
</svg>
