<svg width="100" height="100" xmlns="http://www.w3.org/2000/svg" xmlns:xlink="http://www.w3.org/1999/xlink"><defs><circle id="a" cx="50" cy="50" r="50"/><path d="M40.721.489C46.941 3.719 56 11.6 56 18.925v13.01c0 6.627-5.373 12-12 12H0v-25.01C0 11.893 8.206 4.35 14.302.9c1.119 1.868 4.072 9.318 13.058 9.318 8.92 0 13.18-7.878 13.361-9.728z" id="c"/><path d="M1.625 31.71a.562.562 0 0 0 .084-.281v-2.064c-.147-5.744 1.827-8.411 3.452-10.437 0 0-.987 4.413-.3 3.495 3.888-5.181 21.896-1.633 25.632-8.32.47 3.682-4.244 4.792-4.244 4.792 3.758.72 7.014-.81 7.897-2.624.29 1.48-.602 2.462-1.908 3.473 4.62-.882 4.694-4.094 4.694-4.094.657 4.26 5.392 2.624 5.392 9.598v6.18c0 .317.25.572.558.572h.553a.565.565 0 0 0 .558-.571v-4.59C44.28 10.755 35.301 0 22.943 0 11.15 0 0 10.724.008 24.922c0 .011-.007.024-.007.036v6.47c0 .317.25.572.557.572h.594c.17 0 .317-.083.418-.205" id="e"/></defs><g fill="none" fill-rule="evenodd"><g><mask id="b" fill="#fff"><use xlink:href="#a"/></mask><g mask="url(#b)"><path fill="#99BDCD" d="M-8 100h126V0H-8z"/></g><g mask="url(#b)"><path d="M36.618 63.35c1.051 1.684 4.004 31.275 12.867 31.275 8.866 0 12.868-30.141 12.868-31.71-13.573-7.79-25.735.435-25.735.435z" fill="#E7E5E2"/><g transform="translate(22.206 62.628)"><mask id="d" fill="#fff"><use xlink:href="#c"/></mask><use fill="#D8A25D" xlink:href="#c"/><g mask="url(#d)" fill="#005B82"><path d="M-34.222 73.391h131v-102h-131z"/></g></g><path d="M70.81 47.476c-2.572 10.626-10.913 18.41-20.806 18.41-9.894 0-18.234-7.786-20.805-18.413-.25.094-.526.146-.817.146-1.135 0-2.058-.796-2.058-1.78v-7.183c0-.985.923-1.781 2.058-1.781.076 0 .151.004.225.01C30.123 24.632 39.125 15.22 50.004 15.22c10.88 0 19.882 9.412 21.398 21.666.07-.007.143-.01.216-.01 1.138 0 2.058.796 2.058 1.781v7.183c0 .984-.92 1.78-2.058 1.78-.287 0-.56-.051-.809-.143z" fill="#E7E5E2"/><g><path d="M41.736 39.6c-1.483.113-1.898-2.094-1.452-3.535.085-.273.576-1.516 1.444-1.516s1.251.68 1.304.796c.639 1.405.325 4.13-1.296 4.255M58.279 39.6c1.482.113 1.897-2.094 1.45-3.535-.084-.273-.574-1.516-1.443-1.516-.868 0-1.25.68-1.304.796-.638 1.405-.326 4.13 1.297 4.255" fill="#635E59"/><path d="M50.399 41.626c.886-.138 1.75-.105 2.155.398.989 1.226.705 2.642-.96 3.69-.831.521-2.01.736-2.732.413" stroke="#D1BFA3" stroke-linecap="round"/><path d="M56.785 49.886s-1.872 4.331-7.082 4.17c-5.21-.161-7.164-4.17-7.164-4.17" stroke="#593A32" stroke-width="1.013" stroke-linecap="round"/></g><g><g transform="translate(27.353 11.094)"><mask id="f" fill="#fff"><use xlink:href="#e"/></mask><use fill="#F6B873" xlink:href="#e"/><g mask="url(#f)" fill="#D2654C"><path d="M-12-26.839h69v82h-69z"/></g></g></g></g></g><path d="M73.748 90H58.25A1.26 1.26 0 0 1 57 88.73V80.27c0-.702.56-1.271 1.251-1.271h15.497c.691 0 1.252.57 1.252 1.271v8.458c0 .703-.56 1.271-1.252 1.271" fill="#D2242A"/><path d="M69.864 85.008a3.772 3.772 0 0 1-3.78 3.763c-2.091 0-3.784-1.686-3.784-3.763s1.693-3.763 3.784-3.763a3.772 3.772 0 0 1 3.78 3.763M61.184 86.667h-.737l.788-1.923h.74zM70.48 86.667h-.456l.788-1.923h.457zM71.743 86.667h-.194l.787-1.923h.193z" fill="#FFF"/><path d="M63.21 86.658h.581c.03 0 .054-.023.054-.052v-1.8a.052.052 0 0 0-.054-.051h-.586c-.04 0-.068.03-.068.068l-.23.566a.046.046 0 0 0 .04.064h.165c.025 0 .047.019.047.046v1.107c0 .029.023.052.052.052" fill="#C52D35"/><path d="M64.472 86.658h.583c.03 0 .055-.023.055-.052v-1.8c0-.028-.025-.051-.055-.051h-.906a.068.068 0 0 0-.068.068l-.232.566-.08.064h.464c.103 0 .187.081.187.186v.967c0 .029.023.052.052.052M67.076 84.755h-.582a.053.053 0 0 0-.053.052v1.799c0 .029.024.052.053.052h.588c.04 0 .068-.03.068-.068l.23-.566c.015-.031-.007-.065-.043-.065h-.16a.045.045 0 0 1-.046-.045v-1.107c0-.03-.026-.052-.055-.052" fill="#C52D35"/><path d="M64.681 86.658h.383c.037 0 .067-.031.067-.067l.23-.568a.046.046 0 0 0-.042-.065h-.161l-.477.7zM68.634 84.755h.693c.034 0 .058.032.043.062l-.733 1.812c-.005.018-.022.029-.042.029h-.627l.621-1.872a.05.05 0 0 1 .045-.031" fill="#C52D35"/><path d="M67.766 84.755h-.979c-.069 0 .282.067.306.13l.693 1.713c.014.038.05.06.089.06h.593l-.61-1.839a.094.094 0 0 0-.092-.064M66.488 85.365c0 .383-.049.406-.049.406s-.055-.367-.34-.367c-.28 0-.343.162-.343.283 0 .14.142.272.222.272h.51l-.301.664a.061.061 0 0 1-.056.035h-.232c-.242 0-.875-.316-.875-.928 0-.613.47-.975.863-.975a.58.58 0 0 1 .6.61z" fill="#C52D35"/><path d="M66.931 80.746h-1.606a.214.214 0 0 1-.215-.214v-.27c0-.117.096-.213.215-.213h1.606c.12 0 .215.096.215.214v.27a.214.214 0 0 1-.215.213" fill="#5A1F57"/><path fill="#C2B5CF" d="M65.663 80.5h.93V78h-.93z"/></g></svg>