<svg xmlns="http://www.w3.org/2000/svg" xmlns:xlink="http://www.w3.org/1999/xlink" width="24" height="24"><defs><path id="a" d="M5 13.9l1.777 1.184a.5.5 0 0 1-.554.832l-6-4a.5.5 0 0 1 .554-.832L4 13.233V.5a.5.5 0 0 1 .5-.5h15a.5.5 0 0 1 .5.5v12.733l3.223-2.149a.5.5 0 1 1 .554.832l-6 4a.5.5 0 0 1-.554-.832L19 13.899V1H5v12.9zM20.5 21a.505.505 0 0 1-.313-.109L15.324 17H8.676l-4.863 3.891a.5.5 0 0 1-.625-.781l5-4A.499.499 0 0 1 8.5 16h7c.113 0 .224.039.313.109l5 4A.5.5 0 0 1 20.5 21zM9.5 4h-2a.5.5 0 0 1 0-1h2a.5.5 0 0 1 0 1zm7 3h-7a.5.5 0 0 1 0-1h7a.5.5 0 0 1 0 1zm0 3h-9a.5.5 0 0 1 0-1h9a.5.5 0 0 1 0 1zm0 3h-9a.5.5 0 0 1 0-1h9a.5.5 0 0 1 0 1zM22 24H2c-1.103 0-2-.897-2-2V11.5a.5.5 0 0 1 .217-.412l4-2.75a.5.5 0 0 1 .566.824L1 11.763V22a1 1 0 0 0 1 1h20a1 1 0 0 0 1-1V11.763l-3.783-2.601a.5.5 0 1 1 .566-.824l4 2.75A.5.5 0 0 1 24 11.5V22c0 1.103-.897 2-2 2z"/></defs><g fill="none" fill-rule="evenodd"><mask id="b" fill="#fff"><use xlink:href="#a"/></mask><use fill="#3E3832" fill-rule="nonzero" xlink:href="#a"/><g fill="#3E3832" mask="url(#b)"><path d="M0 24h24V0H0z"/></g><path stroke="#D2D2D2" d="M-32.5-60.5h632v471h-632z"/></g></svg>